<svg id="Layer_1" data-name="Layer 1" xmlns="http://www.w3.org/2000/svg" viewBox="0 0 74 51.8"><defs><style>.cls-1{fill:#00a1e0;}</style></defs><path class="cls-1" d="M41.4,28.9a.8.8,0,0,0-.4.8,1.3,1.3,0,0,0,.1.6l.3.2a2.1,2.1,0,0,0,1.2.3l1.2-.2V28.7H42.6A1.8,1.8,0,0,0,41.4,28.9Z" transform="translate(-23 -4.1)"/><path class="cls-1" d="M69.5,26.1a1.5,1.5,0,0,0-1.3.6,3.8,3.8,0,0,0,0,3.4,1.5,1.5,0,0,0,1.3.6,1.4,1.4,0,0,0,1.2-.6,2.9,2.9,0,0,0,.4-1.7,3.9,3.9,0,0,0-.4-1.7A1.4,1.4,0,0,0,69.5,26.1Z" transform="translate(-23 -4.1)"/><path class="cls-1" d="M52.2,26.1a1.2,1.2,0,0,0-1.2.6,3,3,0,0,0-.4,1h3.1a1.7,1.7,0,0,0-.3-1A1.2,1.2,0,0,0,52.2,26.1Z" transform="translate(-23 -4.1)"/><path class="cls-1" d="M81,11.1a15,15,0,0,0-6.4,1.4A13.2,13.2,0,0,0,63.2,5.7a13,13,0,0,0-9.4,4.1h0A14.4,14.4,0,0,0,28,18.4a13.2,13.2,0,0,0,1.2,5.7A12.6,12.6,0,0,0,23,34.9,12.4,12.4,0,0,0,35.4,47.4a10.6,10.6,0,0,0,2.5-.2,13.3,13.3,0,0,0,24.7.6A12.7,12.7,0,0,0,67.7,49a11.8,11.8,0,0,0,10.2-6,16.3,16.3,0,0,0,3.1.3,16.1,16.1,0,0,0,0-32.2ZM38.8,29.8c0,1.3-.9,2.1-2.4,2.1a4.4,4.4,0,0,1-2.2-.5l-.5-.2V31h0l.3-.9a.1.1,0,0,1,.2,0l.3.2a4,4,0,0,0,2,.5c.6,0,1-.3,1-.8h0c0-.5-.6-.7-1.3-1H36c-1-.3-2.1-.7-2.1-2h0a2.2,2.2,0,0,1,2.4-2.1h.1a5.1,5.1,0,0,1,2.2.6c0,.1.1.1.1.2l-.3.8c-.1.2-.2.1-.2.1a4.6,4.6,0,0,0-2-.5c-.6,0-.9.3-.9.7h0c0,.5.6.7,1.3.9h.2c1,.3,2,.8,2,2Zm6.3,1.5s0,.2-.1.2h-.3l-1,.2H41.2l-.9-.4a1.8,1.8,0,0,1-.5-.7,1.5,1.5,0,0,1-.3-1,1.9,1.9,0,0,1,.3-1,1.9,1.9,0,0,1,.6-.7l.9-.4h2.5v-.2c0-.6-.1-.8-.4-1a1.3,1.3,0,0,0-1-.3,5,5,0,0,0-1.9.4h0s-.2,0-.2-.1l-.3-.8a.1.1,0,0,1,0-.2,4.5,4.5,0,0,1,1.3-.5h1.2a2.7,2.7,0,0,1,1.9.6,2.2,2.2,0,0,1,.7,1.9Zm2.8.3H46.5V22.5a.2.2,0,0,1,.2-.2h1.1c.1,0,.1.1.1.2ZM55,28.7a.1.1,0,0,1-.1.1H50.6a2.6,2.6,0,0,0,.5,1.4,2.1,2.1,0,0,0,1.5.5,4.8,4.8,0,0,0,1.8-.3.1.1,0,0,1,.1.1l.3.8a.1.1,0,0,1,0,.2,5,5,0,0,1-2.2.4l-1.5-.2a2.8,2.8,0,0,1-1.1-.8,2.1,2.1,0,0,1-.6-1,3.4,3.4,0,0,1-.2-1.4,3.4,3.4,0,0,1,.2-1.4,3.7,3.7,0,0,1,.5-1.1l1-.7a3.3,3.3,0,0,1,1.5-.3,2.7,2.7,0,0,1,1.2.3l.8.6a2.4,2.4,0,0,1,.5.9h0A4.2,4.2,0,0,1,55,28.7Zm1.4,2.7-.5-.2V31h0l.3-.9a.1.1,0,0,1,.2,0l.3.2a4,4,0,0,0,2,.5c.6,0,1-.3,1-.8h0c0-.5-.6-.7-1.3-1h-.2c-1-.3-2.1-.7-2.1-2h0a2.2,2.2,0,0,1,2.4-2.1h.1a5.1,5.1,0,0,1,2.2.6c0,.1.1.1.1.2l-.3.8c-.1.2-.2.1-.2.1a4.6,4.6,0,0,0-2-.5c-.6,0-.9.3-.9.7h0c0,.5.6.7,1.3.9H59c1,.3,2,.8,2,2h0c0,1.3-.9,2.1-2.4,2.1A4.4,4.4,0,0,1,56.4,31.4ZM66,26.1H64.5l-.9,5.5a15.5,15.5,0,0,1-.4,1.5,1.8,1.8,0,0,1-.6.9,1.6,1.6,0,0,1-.8.6h-2c-.1-.1-.1-.1-.1-.2l.3-.9a.1.1,0,0,1,.2,0h1l.4-.3.3-.6a4.5,4.5,0,0,0,.3-1.1l1-5.4H62.1l.2-.9h1.1v-.3a4.2,4.2,0,0,1,.9-1.9,2.5,2.5,0,0,1,1.8-.7h1a.3.3,0,0,1,.1.2l-.4.9c0,.1,0,.1-.2.1s0-.1-.2-.1h-.8l-.4.3-.3.4c-.1.5-.2.9-.2,1h1.5Zm6.4,3.7a2.4,2.4,0,0,1-.6,1.1,2.3,2.3,0,0,1-1,.7,2.8,2.8,0,0,1-1.3.3,3.2,3.2,0,0,1-1.4-.3,2.3,2.3,0,0,1-1-.7,3.7,3.7,0,0,1-.5-1.1,3.2,3.2,0,0,1-.2-1.4,3,3,0,0,1,.2-1.3,2.8,2.8,0,0,1,.5-1.1,3.9,3.9,0,0,1,1-.8,3.2,3.2,0,0,1,1.4-.3,2.8,2.8,0,0,1,1.3.3,3.9,3.9,0,0,1,1,.8,2.4,2.4,0,0,1,.6,1.1,5.9,5.9,0,0,1,.2,1.3A5.9,5.9,0,0,1,72.4,29.8Zm4.9-3.6c0,.1,0,.1-.1.1H76.1c-.2,0-.3.1-.5.3a.9.9,0,0,0-.4.6,3.4,3.4,0,0,0-.1,1.1v3.2l-.2.2H73.8l-.2-.2V25.2H75v.5a1.3,1.3,0,0,1,.7-.5l1.1-.2h.7c.1.1.2.1.1.2h.1A7.9,7.9,0,0,0,77.3,26.2ZM83,31.5a4.5,4.5,0,0,1-1.8.3,3.3,3.3,0,0,1-2.5-.9,3.9,3.9,0,0,1-.8-2.5,3.2,3.2,0,0,1,.2-1.4,2.4,2.4,0,0,1,.6-1.1,2.3,2.3,0,0,1,1-.7,4,4,0,0,1,1.5-.3h.9l.9.3s.1,0,0,.1l-.3.9a.1.1,0,0,1-.1.1,3,3,0,0,0-1.4-.2,1.4,1.4,0,0,0-1.3.6,2.2,2.2,0,0,0-.5,1.7,2.6,2.6,0,0,0,.5,1.7,1.7,1.7,0,0,0,1.5.5H82l.6-.2c0,.1.1,0,.2.1h0l.3.9A.1.1,0,0,1,83,31.5Zm6.4-2.8c0,.1-.2.1-.2.1H84.9a2,2,0,0,0,.6,1.4,2,2,0,0,0,1.4.5,4.4,4.4,0,0,0,1.8-.3h.2l.3.8c0,.1,0,.2-.1.2a4.8,4.8,0,0,1-2.1.4l-1.6-.2a2.8,2.8,0,0,1-1.1-.8,2.1,2.1,0,0,1-.6-1,6.8,6.8,0,0,1-.2-1.4,6.8,6.8,0,0,1,.2-1.4,2.4,2.4,0,0,1,.6-1.1,2.6,2.6,0,0,1,1-.7,2.9,2.9,0,0,1,1.4-.3,2.4,2.4,0,0,1,1.2.3,1.6,1.6,0,0,1,.8.6,1.5,1.5,0,0,1,.5.9h0A5.2,5.2,0,0,1,89.4,28.7Z" transform="translate(-23 -4.1)"/><path class="cls-1" d="M86.5,26.1a1.4,1.4,0,0,0-1.2.6,2.9,2.9,0,0,0-.3,1h3a1.7,1.7,0,0,0-.3-1A1.2,1.2,0,0,0,86.5,26.1Z" transform="translate(-23 -4.1)"/></svg>