<svg id="Layer_1" data-name="Layer 1" xmlns="http://www.w3.org/2000/svg" xmlns:xlink="http://www.w3.org/1999/xlink" viewBox="0 0 95.3 47.1"><defs><style>.cls-1{fill:url(#linear-gradient);}.cls-2{fill:url(#linear-gradient-2);}.cls-3{fill:url(#linear-gradient-3);}</style><linearGradient id="linear-gradient" x1="52.82" y1="24.02" x2="52.82" y2="33.75" gradientUnits="userSpaceOnUse"><stop offset="0" stop-color="#00b8f1"/><stop offset="0.22" stop-color="#06a5e5"/><stop offset="0.79" stop-color="#1870c5"/><stop offset="1" stop-color="#1d61bc"/></linearGradient><linearGradient id="linear-gradient-2" x1="75.89" y1="21.05" x2="75.89" y2="28.46" xlink:href="#linear-gradient"/><linearGradient id="linear-gradient-3" x1="64" y1="6.59" x2="64" y2="54.15" xlink:href="#linear-gradient"/></defs><path class="cls-1" d="M52.8,24l-2.9,9.1a7.9,7.9,0,0,0,3,.5h0a6.9,6.9,0,0,0,2.8-.5L52.9,24Z" transform="translate(-16.4 -6.4)"/><path class="cls-2" d="M74.5,21h-2v7.4h2c2.7,0,4.8-.9,4.8-3.7S77.2,21,74.5,21Z" transform="translate(-16.4 -6.4)"/><path class="cls-3" d="M16.4,6.4V53.6H64.5L111.6,6.4Zm59,28.3H72.5v8.7H58.9l-1.3-4.2a15.7,15.7,0,0,1-9.6,0l-1.4,4.2H38.3l.9-2.4-.3.3A13.3,13.3,0,0,1,31,43.9h-.5a22,22,0,0,1-10.3-2.7L23,35.6a12.4,12.4,0,0,0,7.6,2.1,4,4,0,0,0,2.9-.9,2,2,0,0,0,.6-1.4c.1-1.5-2-2.2-4.5-3a20.4,20.4,0,0,1-6.2-2.8,7.3,7.3,0,0,1-3.2-6.4,7.5,7.5,0,0,1,2.2-5.3c2-2.1,5.2-3.3,9.1-3.3h.1A24.3,24.3,0,0,1,41.9,17l-3.2,5.5A15.5,15.5,0,0,0,32,20.7c-2.7-.1-4.1.9-4.1,1.9s2.6,2.5,5.1,3.3,8.4,2.7,9.1,7.3l6.8-18.1h7.9l8,21.7V15.1h9.1c8.8,0,12.9,3.1,12.9,9.9S82.5,34.7,75.4,34.7Z" transform="translate(-16.4 -6.4)"/></svg>