<svg id="Layer_1" data-name="Layer 1" xmlns="http://www.w3.org/2000/svg" viewBox="0 0 100.6 35.5"><defs><style>.cls-1{fill:#95bf47;}.cls-2{fill:#5e8e3e;}</style></defs><path class="cls-1" d="M37.1,19.2h0q-.1-.3-.3-.3l-2.9-.2-2.1-2.1a.8.8,0,0,0-.8-.1l-1,.3c-.7-1.8-1.8-3.5-3.8-3.5h-.1a2.7,2.7,0,0,0-1.9-1.1c-4.5.1-6.7,5.8-7.4,8.7l-3.2,1c-1,.3-1,.3-1.2,1.2L9.7,44,30,47.8l10.9-2.4S37.1,19.4,37.1,19.2ZM25.5,14.8a7.8,7.8,0,0,1,.4,3V18l-3.5,1.1c.7-2.6,2-3.8,3.1-4.3Zm-1.4-1.3h0l.6.2c-1.5.7-3,2.4-3.7,5.9l-2.8.8C19,17.8,20.8,13.5,24.1,13.5Zm2.1,11.4L24.9,29a6,6,0,0,0-2.7-.7c-2.1,0-2.2,1.4-2.2,1.7,0,1.8,4.8,2.5,4.8,6.9s-2.2,5.5-5,5.5a7.2,7.2,0,0,1-5.3-2.1l.9-3.1s1.8,1.6,3.4,1.6a1.4,1.4,0,0,0,1.4-1.4h0c0-2.4-3.9-2.5-3.9-6.5s2.4-6.5,7.2-6.5a6,6,0,0,1,2.7.5Zm.9-7.2v-.4a9,9,0,0,0-.4-2.8c1,.2,1.7,1.3,2.1,2.7Z" transform="translate(-9.7 -12.2)"/><path class="cls-2" d="M36.8,18.9l-2.9-.2-2.1-2.1-.3-.2L30,47.8l11-2.4L37.1,19.2q-.1-.3-.3-.3Z" transform="translate(-9.7 -12.2)"/><path d="M50.5,30.9c-.8-.4-1.2-.8-1.2-1.3s.5-1,1.4-1a7.1,7.1,0,0,1,2,.4l.7-2.2a4.8,4.8,0,0,0-2.6-.5c-2.7,0-4.6,1.6-4.6,3.8a3.5,3.5,0,0,0,2,2.8c1,.6,1.3.9,1.3,1.5a1.2,1.2,0,0,1-1.3,1.1,6.4,6.4,0,0,1-2.6-.7L44.9,37a6,6,0,0,0,3,.7c2.8,0,4.8-1.3,4.8-3.8a3.7,3.7,0,0,0-2.2-3Zm11.1-4.6A4.2,4.2,0,0,0,58.3,28h-.1l1.2-6.2H56.3l-3,15.9h3.1l1.1-5.5c.4-2,1.4-3.3,2.4-3.3s1,.5,1,1.2a7.8,7.8,0,0,1-.2,1.4l-1.1,6.1h3.1l1.2-6.4a12.3,12.3,0,0,0,.2-2c0-1.7-.9-2.8-2.5-2.8Zm9.5,0c-3.7,0-6.2,3.4-6.2,7.1a4,4,0,0,0,4.3,4.3c3.6,0,6.1-3.2,6.1-7.1a4,4,0,0,0-4.2-4.3Zm-1.5,9.1c-1.1,0-1.5-.9-1.5-2s.9-4.7,2.6-4.7,1.4.9,1.4,1.9-.9,4.8-2.5,4.8Zm13.6-9.1A4,4,0,0,0,80,28.1h-.1l.2-1.6H77.3l-.6,4.1L74.6,41.9h3l.9-4.5h.1a3.4,3.4,0,0,0,1.8.4c3.6,0,6-3.8,6-7.5,0-2.1-.9-4-3.2-4Zm-2.9,9.1A1.8,1.8,0,0,1,79,35l.5-2.9c.4-2,1.4-3.2,2.4-3.2s1.3.8,1.3,1.7-1.2,4.8-2.9,4.8ZM90.8,21.9a1.8,1.8,0,0,0-1.2.5,1.5,1.5,0,0,0-.5,1.3,1.4,1.4,0,0,0,1.4,1.5h.1a1.8,1.8,0,0,0,1.8-1.7h0a1.4,1.4,0,0,0-1.5-1.5ZM86.5,37.5h3.1l2.1-10.9H88.6m11-.1H97.4V26c.2-1,.9-2,1.9-2l1,.2.6-2.4a4.1,4.1,0,0,0-1.7-.3,5,5,0,0,0-3.1,1A6.6,6.6,0,0,0,94.4,26v.5H92.9l-.5,2.4h1.5l-1.7,8.6h3.2L97,28.9h2.1l.5-2.4Zm7.5.1-2.9,7.5h0l-.8-7.5h-3.2l1.8,10a.4.4,0,0,1,0,.5,5.2,5.2,0,0,1-1.7,1.9,5.6,5.6,0,0,1-1.7.9l.8,2.6a6.9,6.9,0,0,0,3-1.7,17.9,17.9,0,0,0,4.1-6.1l3.8-8.1Z" transform="translate(-9.7 -12.2)"/></svg>