<svg id="Layer_1" data-name="Layer 1" xmlns="http://www.w3.org/2000/svg" viewBox="0 0 95.2 32.3"><defs><style>.cls-1{fill:#2a2d2c;}.cls-2{fill:#fff;}.cls-3{fill:#f9c638;}</style></defs><path class="cls-1" d="M22.9,5.8h.6l.7-.4.2-.2H22.7c-.1,0-.2.3-.3.8Zm-4,3.7h.2l.8.2.8-.2h0a1.5,1.5,0,0,1-1.6,0Zm5.3-2.7c0-.2-.1-.3-.3-.4a.9.9,0,0,0-1.2,0l-.3.5a3.2,3.2,0,0,0-.3,1.4.9.9,0,0,0,.3.6.7.7,0,0,0,.6.3,1.1,1.1,0,0,0,.8,0,1.4,1.4,0,0,0,.5-.8,3.4,3.4,0,0,0,.1-1A1.4,1.4,0,0,0,24.2,6.8Z" transform="translate(0 0)"/><path class="cls-1" d="M17.3,5.8c0-.5-.1-.8-.2-.8H15.3l.3.2.6.4h1.1ZM15.4,7.1a4.1,4.1,0,0,0,.1,1.1,1.8,1.8,0,0,0,.5.7h.7a.9.9,0,0,0,.7-.3.7.7,0,0,0,.3-.6,3.2,3.2,0,0,0-.3-1.4L17,6.1a.8.8,0,0,0-1.1,0c-.2.1-.3.2-.3.4A1.4,1.4,0,0,0,15.4,7.1Z" transform="translate(0 0)"/><path class="cls-2" d="M23.4,7.7h.4c-.3,0-.5-.1-.5-.4V6.8a.9.9,0,0,1-.1.7h-.6c.3,0,.5,0,.5.2v.5c0-.4.1-.6.2-.6m.4.7V8a.6.6,0,0,1-.1.4h-.3c.2,0,.3.1.3.2v.3c0-.3,0-.4.1-.4h.2c-.2,0-.3,0-.3-.2" transform="translate(0 0)"/><path d="M4.6,30.5l-.3.5c0,.2-.1.3-.1.5h0c0,.1.1.2.1.3l.4.2h6.7a4.5,4.5,0,0,0,3.3-1.9l.5-.8,1-1.7,2.1-3.4,1.5-2.4h.3l1.5,2.3,3.1,5.1.5.8A4.5,4.5,0,0,0,28.5,32H35l.6-.2a.4.4,0,0,0,.1-.3h0a.7.7,0,0,0-.1-.5l-.3-.5v-.3l-3.5-6.3-3.9-7.3h0c0-.1,0-.1.1-.1a11.2,11.2,0,0,0,4.2-3.6,44.4,44.4,0,0,0,4.1-6.2l1.2-2.3A14.6,14.6,0,0,1,34.1,8c-1.9,1.6-5.2,3.1-9.8,4.6s-7.7,3.1-9.8,5.1l-2.1,1.8a8.6,8.6,0,0,1-1.3,1.4c-1,1.2-2,2.5-2.9,3.8L7.1,26.2l-2.4,4v.3" transform="translate(0 0)"/><path class="cls-1" d="M39.4,1l-.2.3-.3.3h0l-.5.7h0l-.7,1.2L36.1,6.6A51.1,51.1,0,0,1,32,12.8a11,11,0,0,1-4.2,3.5c-.1,0-.1.1-.1.2v.2L31.6,24l3.5,6.3v.3l.3.4a.9.9,0,0,1,.1.5h0c0,.1,0,.2-.1.2l-.5.2H28.5a4.9,4.9,0,0,1-3.2-1.8l-.2-.3-3.4-5.6-1.5-2.4-.2-.2a.2.2,0,0,0-.2.2h0l-1.6,2.4-2.1,3.4-1,1.6-.3.6-.2.3a4.6,4.6,0,0,1-3.2,1.8H4.7l-.3-.2c-.1-.1-.1-.1-.1-.2h0c0-.2.1-.3.1-.5l.3-.5v-.3L8.2,24l3.9-7.4c.1,0,.1-.1,0-.2H12a11,11,0,0,1-4.2-3.5A52.3,52.3,0,0,1,3.7,6.6l-1.6-3L1.4,2.4.9,1.7.6,1.4.4,1.1V.7H6.2a4.4,4.4,0,0,1,1.9.7A6.6,6.6,0,0,1,9.8,2.6a33.3,33.3,0,0,1,2.5,2.8h.4a15.1,15.1,0,0,1,1.1-2.2h0a3.7,3.7,0,0,1,2.4-2h7.4a3.9,3.9,0,0,1,2.5,2h0a14.7,14.7,0,0,1,1,2.2h.2c.1,0,.2,0,.2-.1a34.5,34.5,0,0,1,2.6-2.8,6.1,6.1,0,0,1,1.6-1.2A4.4,4.4,0,0,1,33.6.6h5.8Zm.3-.7L39.2,0H33.6a3.1,3.1,0,0,0-2.1.7A10.9,10.9,0,0,0,29.8,2a14.2,14.2,0,0,0-2.4,2.5l-.9-1.9A4.9,4.9,0,0,0,23.7.3H16.2a4.9,4.9,0,0,0-2.8,2.3l-.9,1.9A27.3,27.3,0,0,0,10.2,2L8.4.7A3.8,3.8,0,0,0,6.3,0H.5L.2.2C.1.4,0,.5,0,.7A.4.4,0,0,0,.1,1a.8.8,0,0,0,.2.5l.3.3a1.8,1.8,0,0,1,.5.7l.7,1.2,1.6,3A52.3,52.3,0,0,0,7.5,13a11,11,0,0,0,4.2,3.5c-1.3,2.4-2.5,4.8-3.8,7.1L4.3,30.2l-.3.6a1.3,1.3,0,0,0-.1.6h0a.7.7,0,0,0,.2.6l.8.3h6.5a4.7,4.7,0,0,0,3.6-2l.2-.3,3.4-5.6.9-1.4.5-.7.4.7.9,1.4,2.1,3.4,1,1.7.3.5.2.3a4.7,4.7,0,0,0,3.6,2h6.8l.5-.2a.9.9,0,0,0,.3-.6h0a1.4,1.4,0,0,0-.2-.6,1.4,1.4,0,0,1-.2-.6l-.2-.3L32,23.7l-3.8-7.1a11,11,0,0,0,4.2-3.5,52.3,52.3,0,0,0,4.1-6.3l1.6-3,.7-1.2.5-.7h0l.3-.3.3-.4V.8a.9.9,0,0,0-.1-.5Z" transform="translate(0 0)"/><path class="cls-3" d="M73,6.5c-1.1.5-1.4,1.4-1.4,3.9a3.3,3.3,0,0,1,1.3-.7l1.3-.8c.8-.6,1-1.4,1-2.8a5.4,5.4,0,0,0-2.2.4" transform="translate(0 0)"/><path class="cls-1" d="M66.9,7.1A3.7,3.7,0,0,0,65.8,9L63,19.8l-2.3-8.9a6,6,0,0,0-1.3-2.8A3.7,3.7,0,0,0,54.2,8h-.1a10.2,10.2,0,0,0-1.3,2.8l-2.3,8.9L47.7,9a3.5,3.5,0,0,0-1-1.9,5.2,5.2,0,0,0-3.4-1l5.3,20.1a5.7,5.7,0,0,0,2.6-.3c1.2-.6,1.7-1,2.4-3.8L56.1,12c.1-.2.2-.8.7-.8s.5.6.6.8,1.9,7.7,2.5,10.1,1.3,3.2,2.4,3.8a6.3,6.3,0,0,0,2.7.3L70.3,6.1a5.2,5.2,0,0,0-3.4,1m8.3,2.3a3.1,3.1,0,0,1-1.1.9l-1.5.7a1.6,1.6,0,0,0-1,1.6V26.2a5.5,5.5,0,0,0,2.2-.2c1.1-.6,1.4-1.2,1.4-3.7V9.4m13.2,6.8,6.8-10s-2.9-.5-4.3.8A21.1,21.1,0,0,0,89,9.3l-2.5,3.6c0,.2-.3.4-.5.4a.7.7,0,0,1-.5-.4L83,9.3A21.1,21.1,0,0,0,81.1,7c-1.4-1.3-4.3-.8-4.3-.8l6.8,10L76.8,26.3s3,.3,4.4-.9A12.4,12.4,0,0,0,83,23.2l2.5-3.6a.7.7,0,0,1,.5-.4c.2,0,.5.2.5.4L89,23.2a20,20,0,0,0,1.9,2.2c1.4,1.2,4.3.9,4.3.9l-6.7-10" transform="translate(0 0)"/><path class="cls-2" d="M16.4,7.3H16c.3,0,.5-.1.5-.4V6.4a2.5,2.5,0,0,0,.2.7h.5c-.3,0-.5,0-.5.2v.5c0-.4-.1-.6-.2-.6" transform="translate(0 0)"/><path class="cls-2" d="M16.1,8h.4c-.2,0-.3.1-.3.2v.3c0-.3,0-.4-.1-.4h-.2c.1,0,.2,0,.3-.2" transform="translate(0 0)"/></svg>