<svg id="Layer_1" data-name="Layer 1" xmlns="http://www.w3.org/2000/svg" viewBox="0 0 256 152.4"><defs><style>.cls-1{fill:#7f54b3;}</style></defs><path class="cls-1" d="M217.8,43c-3.7-.7-7.4,1.3-10.8,6.4a33.3,33.3,0,0,0-5.5,12.4,37.7,37.7,0,0,0-.7,7.6,27.5,27.5,0,0,0,1.8,9.5c1.6,4,3.7,6.2,6.2,6.7s5.4-.6,8.4-3.3,6.4-8.5,7.9-15.4h0a38,38,0,0,0,.7-7.7,27.9,27.9,0,0,0-1.8-9.5C222.4,45.7,220.3,43.5,217.8,43Z" transform="translate(0)"/><path class="cls-1" d="M158.7,49.7c-1.5-4-3.6-6.2-6.1-6.7s-7.4,1.3-10.9,6.4a35,35,0,0,0-5.5,12.4,37.7,37.7,0,0,0-.7,7.6,25.5,25.5,0,0,0,1.9,9.5c1.5,4,3.6,6.2,6.1,6.7s5.4-.6,8.4-3.3,6.5-8.5,8-15.4h0a32,32,0,0,0,.7-7.7A25.9,25.9,0,0,0,158.7,49.7Z" transform="translate(0)"/><path class="cls-1" d="M232.1,0H23.8A23.8,23.8,0,0,0,0,23.9v79.5a23.9,23.9,0,0,0,23.9,23.9h98.7l45.1,25.1-10.3-25.1h74.7A23.9,23.9,0,0,0,256,103.4V23.9A23.9,23.9,0,0,0,232.1,0Zm-126,104.4a12.4,12.4,0,0,1-1.3,6.8,6.6,6.6,0,0,1-5.5,3.8c-2.7.2-5.5-1-8.2-3.9q-14.5-14.7-23-44.3-10.2,20-15,30c-6.2,11.7-11.4,17.8-15.7,18.1-2.8.2-5.2-2.2-7.3-7.2-5.3-13.6-11-40-17.2-79a8.9,8.9,0,0,1,1.7-7h0a8.2,8.2,0,0,1,6.5-3.3c5.3-.4,8.4,2.1,9.1,7.5C33.4,47.8,37,66.2,40.7,81.3L63.5,37.9q3.1-6,7.8-6.3c4.6-.3,7.4,2.6,8.5,8.8A200,200,0,0,0,89.7,76c2.7-26.5,7.3-45.5,13.8-57.3a7.8,7.8,0,0,1,6.8-4.5,9,9,0,0,1,6.6,2,8.2,8.2,0,0,1,3.2,6,9.6,9.6,0,0,1-1,5c-4.1,7.5-7.4,20-10.1,37.5S105.4,94.9,106.1,104.4ZM170,88c-6.3,10.4-14.4,15.6-24.5,15.6a28.1,28.1,0,0,1-5.6-.6,24,24,0,0,1-16.7-12c-3.3-5.8-5-12.6-5-20.7A55,55,0,0,1,126.3,41c6.4-10.4,14.5-15.6,24.5-15.6a28.1,28.1,0,0,1,5.6.6,24.4,24.4,0,0,1,16.7,12.1c3.3,5.6,5,12.4,5,20.5A55.6,55.6,0,0,1,170,88Zm65.1,0c-6.2,10.4-14.4,15.6-24.5,15.6a28.9,28.9,0,0,1-5.6-.6,23.7,23.7,0,0,1-16.6-12c-3.4-5.8-5-12.6-5-20.7A55,55,0,0,1,191.5,41c6.3-10.4,14.5-15.6,24.4-15.6a29.1,29.1,0,0,1,5.7.6,23.8,23.8,0,0,1,16.6,12.1c3.3,5.6,5.1,12.4,5,20.5A55.6,55.6,0,0,1,235.1,88Z" transform="translate(0)"/></svg>